<svg width="104" height="187" viewBox="0 0 104 187" fill="none" xmlns="http://www.w3.org/2000/svg">
<path d="M99.7026 77.6964C102.632 80.626 29.3926 184.626 25.7308 180.964C22.069 177.302 48.435 108.457 45.5054 105.527C42.5758 102.598 7.42151 108.457 4.49134 105.527C1.56118 102.598 66.0124 1.52742 68.942 4.457C71.8715 7.38658 54.2943 74.7668 57.2237 77.6964C60.1531 80.626 96.7732 74.7668 99.7026 77.6964Z" fill="#FFDC18" stroke="black" stroke-width="5"/>
<path d="M11.5 100.5C10.0352 99.035 60.5705 16.0356 63.5 17.5C66.4295 18.9644 22.9647 99.0354 21.5 100.5C20.0352 101.965 12.9648 101.965 11.5 100.5Z" fill="#F7B600"/>
<path d="M57 111.5C58.4648 112.965 35.4295 169.964 32.5 168.5C29.5705 167.035 48.1617 113.338 50 111.5C51.8383 109.662 55.5352 110.035 57 111.5Z" fill="#F7B600"/>
</svg>
