<svg width="190" height="187" viewBox="0 0 190 187" fill="none" xmlns="http://www.w3.org/2000/svg">
<path d="M167.212 93.1504L169.712 93.2025L169.713 93.1498L169.712 93.0972L167.212 93.1504ZM167.212 93.1504C169.712 93.0972 169.712 93.097 169.712 93.0967L169.712 93.0957L169.712 93.0921L169.711 93.0785L169.71 93.0264L169.706 92.826C169.701 92.6512 169.695 92.3956 169.686 92.0705C169.668 91.4204 169.641 90.4918 169.601 89.3749C169.523 87.1431 169.397 84.15 169.207 81.1194C169.019 78.1016 168.764 74.9941 168.423 72.5538C168.253 71.3445 168.052 70.2174 167.803 69.3211C167.68 68.8793 167.522 68.4033 167.306 67.9723C167.143 67.6468 166.719 66.8585 165.83 66.4143C165.257 66.1275 164.711 66.0989 164.376 66.1114C164.023 66.1246 163.708 66.1914 163.464 66.2572C162.981 66.3883 162.487 66.5986 162.038 66.8143C161.125 67.2534 160.013 67.9047 158.823 68.6441C157.294 69.5939 155.479 70.789 153.589 72.0342C152.542 72.7239 151.471 73.429 150.413 74.1163C147.381 76.0853 144.407 77.9378 142.006 79.1423C140.794 79.75 139.845 80.1321 139.175 80.3037C139.03 80.3409 138.916 80.3632 138.831 80.3765C136.591 78.7675 129.364 73.5817 119.615 68.7488C109.358 63.6642 96.0642 58.8443 82.6785 59.1505C62.657 59.2306 43.0371 65.6216 28.4478 72.8395C21.143 76.4534 15.0236 80.3118 10.6903 83.7621C8.53009 85.4822 6.75235 87.1493 5.48919 88.6811C4.85737 89.4472 4.31347 90.2284 3.91792 91.0086C3.53259 91.7686 3.21235 92.6755 3.21235 93.6504C3.21235 94.6253 3.53259 95.5322 3.91792 96.2922C4.31347 97.0724 4.85737 97.8536 5.48919 98.6197C6.75235 100.151 8.53009 101.819 10.6903 103.539C15.0236 106.989 21.143 110.847 28.4478 114.461C43.0371 121.679 62.657 128.07 82.6785 128.15C96.0642 128.457 109.358 123.637 119.615 118.552C129.385 113.709 136.622 108.511 138.846 106.914C138.846 106.914 138.846 106.914 138.847 106.913C138.934 106.925 139.054 106.947 139.209 106.984C139.88 107.146 140.828 107.512 142.039 108.097C144.439 109.256 147.413 111.048 150.444 112.954C151.506 113.622 152.58 114.307 153.631 114.978C155.517 116.181 157.328 117.336 158.854 118.254C160.044 118.97 161.157 119.6 162.07 120.023C162.52 120.231 163.013 120.433 163.495 120.557C163.738 120.62 164.051 120.682 164.399 120.692C164.73 120.701 165.267 120.668 165.83 120.386C166.731 119.936 167.155 119.131 167.313 118.809C167.527 118.375 167.684 117.894 167.806 117.447C168.054 116.539 168.254 115.394 168.423 114.162C168.765 111.677 169.019 108.508 169.208 105.428C169.397 102.336 169.523 99.2806 169.601 97.0022C169.641 95.8619 169.668 94.914 169.686 94.2503C169.695 93.9185 169.701 93.6575 169.706 93.4791L169.71 93.2747L169.711 93.2215L169.712 93.2076L169.712 93.204L169.712 93.2029C169.712 93.2026 169.712 93.2025 167.212 93.1504Z" fill="#FF8D4E" stroke="#191F22" stroke-width="5"/>
<path d="M142.68 99.1306L162.125 103.727M143.034 94.0344H162.833M144.094 89.2311L161.772 83.5742" stroke="#E65A0C" stroke-linecap="round"/>
<mask id="mask0_105_718" style="mask-type:alpha" maskUnits="userSpaceOnUse" x="5" y="61" width="163" height="65">
<path d="M167.212 93.1504C167.212 93.1504 166.712 117.15 164.712 118.15C162.712 119.15 141.212 102.15 137.712 104.65C134.212 107.15 108.324 126.248 82.7123 125.65C43.6297 125.504 5.71235 100.65 5.71235 93.6504C5.71235 86.6504 43.6297 61.7967 82.7123 61.6504C108.324 61.0525 134.212 80.1504 137.712 82.6504C141.212 85.1504 162.712 67.6504 164.712 68.6504C166.712 69.6504 167.212 93.1504 167.212 93.1504Z" fill="#FF8D4E"/>
</mask>
<g mask="url(#mask0_105_718)">
<circle cx="11.6886" cy="94.3574" r="50" transform="rotate(-45 11.6886 94.3574)" fill="#F7EFC7"/>
</g>
<circle cx="37.1444" cy="92.9434" r="7" transform="rotate(-45 37.1444 92.9434)" fill="#F9FFF9"/>
<circle cx="37.1444" cy="92.9434" r="5" transform="rotate(-45 37.1444 92.9434)" fill="#191F22"/>
<path d="M76.1552 105.084C91.1752 101.984 107.684 106.953 105.075 95.1758C102.465 83.3986 78.8086 82.3916 78.8086 82.3916" stroke="#E55A0C" stroke-width="3" stroke-linecap="round"/>
</svg>
